PathFileType	4	(X/Y/Z)	2014001\dynamic\2014001_C1_04.trc
DataRate	CameraRate	NumFrames	NumMarkers	Units	OrigDataRate	OrigDataStartFrame	OrigNumFrames
100.000000	100.000000	4	52	mm	100.000000	71	569
Frame#	Time	L_IAS			L_IPS			R_IPS			R_IAS			L_FTC			L_FLE			L_FME			L_FAX			L_TTC			L_FAL			L_TAM			L_FCC			L_FM1			L_FM2			L_FM5			R_FTC			R_FLE			R_FME			R_FAX			R_TTC			R_FAL			R_TAM			R_FCC			R_FM1			R_FM2			R_FM5			CV7			TV10			SXS			SJN			L_SIA			L_SRS			L_SAA			L_SAE			L_HLE			L_HME			L_UOA			L_RSP			L_UHE			L_HM2			L_HM5			R_SIA			R_SRS			R_SAA			R_SAE			R_HLE			R_HME			R_UOA			R_RSP			R_UHE			R_HM2			R_HM5			
		X1	Y1	Z1	X2	Y2	Z2	X3	Y3	Z3	X4	Y4	Z4	X5	Y5	Z5	X6	Y6	Z6	X7	Y7	Z7	X8	Y8	Z8	X9	Y9	Z9	X10	Y10	Z10	X11	Y11	Z11	X12	Y12	Z12	X13	Y13	Z13	X14	Y14	Z14	X15	Y15	Z15	X16	Y16	Z16	X17	Y17	Z17	X18	Y18	Z18	X19	Y19	Z19	X20	Y20	Z20	X21	Y21	Z21	X22	Y22	Z22	X23	Y23	Z23	X24	Y24	Z24	X25	Y25	Z25	X26	Y26	Z26	X27	Y27	Z27	X28	Y28	Z28	X29	Y29	Z29	X30	Y30	Z30	X31	Y31	Z31	X32	Y32	Z32	X33	Y33	Z33	X34	Y34	Z34	X35	Y35	Z35	X36	Y36	Z36	X37	Y37	Z37	X38	Y38	Z38	X39	Y39	Z39	X40	Y40	Z40	X41	Y41	Z41	X42	Y42	Z42	X43	Y43	Z43	X44	Y44	Z44	X45	Y45	Z45	X46	Y46	Z46	X47	Y47	Z47	X48	Y48	Z48	X49	Y49	Z49	X50	Y50	Z50	X51	Y51	Z51	X52	Y52	Z52	

72	0.71	400.8550720214846	876.239624023438	149.0100555419922	338.6714172363282	924.3162231445317	-30.44563484191896	249.6185150146486	925.608276367188	-40.14353942871095	160.5115814208985	884.5212402343755	128.5765075683594	458.2472229003909	794.764526367188	73.83084106445315	407.293884277344	439.607360839844	80.87025451660159	293.613983154297	438.9131164550784	100.8303985595704	406.190856933594	375.944061279297	64.61598968505862	360.0386047363282	365.623504638672	129.0112609863282	340.5823974609376	60.09061813354495	68.73626708984378	256.207977294922	77.04901123046878	97.40414428710943	289.6817016601564	20.07505035400391	30.53874397277833	275.4168395996095	29.87337112426759	211.7880401611329	337.6082458496095	38.08371734619142	216.3596191406251	380.1838989257814	22.83826637268067	161.7408294677735	109.8071289062501	796.8024291992192	19.67965698242188	104.2524948120118	453.0972595214846	-4.385617256164553	217.4002532958986	417.559509277344	32.40884399414064	104.1984024047852	410.9400024414065	-52.78026962280276	136.1353759765626	359.9517822265626	2.270657539367677	164.4951782226563	202.1645507812501	-281.9179992675782	235.9018707275392	177.0537567138672	-228.9841613769532	233.9590911865236	206.5941925048829	-321.7302246093751	220.1515502929689	50.99087524414065	-236.0227813720704	159.7672271728516	53.25480270385745	-240.327117919922	129.1623535156251	91.61799621582034	-285.500701904297	329.3948669433595	1387.0693359375	12.39362716674805	312.4586181640626	1157.525024414063	-58.01355361938479	313.008758544922	1153.65869140625	173.7115173339844	325.8457336425782	1317.896484375	138.624740600586	411.251159667969	1188.555541992188	-56.7492485046387	412.0123291015627	1317.886840820313	-33.02343750000001	518.5227050781252	1307.935302734375	40.67749404907228	503.4734497070315	1318.78564453125	81.67652130126956	575.2409667968752	1034.442260742188	46.83354568481447	498.1726684570315	1001.781555175782	25.21580886840822	548.3923339843752	996.950561523438	16.58930778503419	529.2056274414065	824.2230834960942	179.9418334960938	594.1062622070315	809.526245117188	134.2174682617188	534.7645263671877	750.527282714844	225.5917358398439	593.2281494140627	731.8314208984377	143.7915802001954	200.4361572265626	1210.002319335938	-61.92499923706058	234.3307647705079	1331.141845703125	-29.70332336425783	131.9966735839844	1334.723754882813	49.45569229125979	146.0337371826172	1335.864379882813	98.37528228759771	45.97919845581056	1038.649658203125	56.94039535522464	117.8412475585938	1015.853698730469	26.05446815490724	71.31878662109378	1005.647766113282	28.69234275817873	101.0043411254883	873.0327148437505	210.9620513916017	33.10337448120119	851.0058593750005	172.5421600341797	92.95420074462893	802.6990356445317	273.6198730468751	36.02283096313478	774.8266601562505	193.2626800537111	
73	0.72	401.7073669433596	876.0824584960942	151.3616180419922	339.4973754882814	924.0861206054692	-28.13258361816408	250.4474639892579	925.5666503906255	-37.86781311035158	161.3293151855469	884.8237915039067	130.9553527832032	458.8608703613284	794.410766601563	76.19873046875003	407.3972473144534	439.3899841308596	82.94939422607425	293.6339111328126	438.8066711425784	102.2327117919922	406.3488464355471	375.7613220214845	66.59161376953128	359.7445373535157	365.3480834960939	130.6519927978516	340.3557434082032	60.09417343139651	69.31135559082034	255.8884735107423	76.90626525878909	97.43668365478521	289.6154785156251	20.13763809204102	30.62129592895509	275.149139404297	29.24831962585451	212.0438995361329	337.4774475097657	37.92330169677736	216.6734619140626	380.1329345703126	22.89681434631348	161.7511444091797	110.3888702392579	796.9467163085942	22.36883735656739	104.2277297973633	453.1525573730471	0.6309936642646792	217.262908935547	417.4289245605471	37.81193923950197	104.2604904174805	411.2315063476565	-47.71865081787111	135.8165283203126	359.9928588867189	7.4028754234314	164.9912567138672	203.2996826171876	-277.4035949707032	236.1434020996095	177.9205932617188	-224.2634277343751	234.5570220947267	207.6898040771486	-316.958953857422	220.0038452148439	52.00228118896487	-231.0645141601564	159.8153076171876	54.34647750854495	-235.6692047119142	129.5264587402344	92.77667999267581	-281.1553039550782	330.3721008300782	1387.061157226563	14.57596302032471	313.4515075683595	1157.500366210938	-55.77867507934573	314.0778808593751	1153.683349609375	175.9373321533204	326.909637451172	1317.9052734375	140.8102264404297	412.1640625000002	1188.503295898438	-54.58743667602542	412.9485473632815	1317.851196289063	-30.90906333923341	519.519470214844	1307.901000976563	42.69441986083986	504.5073547363284	1318.760864257813	83.71147918701175	576.1383056640627	1034.339965820313	48.98245239257815	499.0471191406252	1001.68798828125	27.46731376647951	549.2564086914065	996.7585449218755	18.8294792175293	529.8101196289065	824.663208007813	182.8747253417969	594.6522216796877	809.664184570313	137.1843872070313	535.3262939453127	751.2083129882815	228.9361114501954	593.6172485351565	731.9940185546877	147.0851440429688	201.3920288085939	1209.963256835938	-59.61663436889651	235.2894744873048	1331.113647460938	-27.47407913208009	133.0020904541016	1334.678466796875	51.74761199951175	147.0740051269532	1335.837646484375	100.6567459106446	46.80369186401369	1038.7041015625	59.30271911621097	118.6280059814454	1015.851745605469	28.36033439636232	72.09858703613284	1005.675659179688	31.05090522766115	101.9128417968751	873.1240844726567	213.3372039794923	33.94628524780275	851.1004028320317	175.0115509033204	93.91458892822268	802.8358764648442	276.0451049804689	36.84424972534181	774.9347534179692	195.7698822021486	
74	0.73	402.5299377441409	875.9258422851567	153.6461181640626	340.3226013183595	923.9111938476567	-25.94896125793458	251.2630920410157	925.520385742188	-35.6681251525879	162.1304931640626	885.1308593750005	133.2811889648438	459.4625244140627	794.0645141601567	78.53267669677737	407.4923400878909	439.1816406250002	85.08592224121097	293.6372070312501	438.7102355957034	103.7507476806641	406.4948730468752	375.5837402343751	68.62326812744143	359.4491271972657	365.0706481933595	132.3450927734376	340.1466369628907	60.09220504760745	69.86835479736331	255.572967529297	76.76728057861331	97.48590087890631	289.5541992187501	20.20296096801759	30.70392990112306	274.8926391601564	28.68198394775392	212.2952728271486	337.345184326172	37.77986145019533	216.9706878662111	380.0699768066407	22.9638786315918	161.7682800292969	110.9608535766602	797.0892944335942	25.011043548584	104.2084579467774	453.2200622558596	5.630667209625246	217.1305694580079	417.3268737792971	43.17526626586915	104.3146438598633	411.5256347656252	-42.66807937622072	135.4991302490235	360.0552368164064	12.53085613250733	165.4222717285157	204.2888183593751	-272.8015136718751	236.3329467773439	178.6859741210938	-219.457244873047	235.0581054687501	208.5756225585939	-312.1488647460939	219.8050842285157	52.92731094360354	-225.8958129882814	159.7808227539063	55.42702484130862	-230.7372894287111	129.8013000488282	93.79742431640628	-276.5549926757814	331.3161621093751	1387.055297851563	16.69835281372071	314.4299316406251	1157.477172851563	-53.60970687866214	315.1270141601564	1153.7041015625	178.0979461669922	327.9436645507814	1317.908325195313	142.933090209961	413.0532531738284	1188.456787109375	-52.49160385131839	413.8587646484377	1317.826049804688	-28.85591697692873	520.4915161132815	1307.875732421875	44.64490890502931	505.5159301757815	1318.740844726563	85.6868591308594	576.9902343750002	1034.239013671875	51.03665924072268	499.8760070800784	1001.611328125	29.60021591186525	550.074645996094	996.584350585938	20.96219635009766	530.342224121094	825.0413208007817	185.6007995605469	595.1340332031252	809.7651367187505	139.9451141357422	535.7964477539065	751.7987060546877	232.0121154785157	593.941589355469	732.1206665039065	150.1239318847657	202.3264160156251	1209.921630859375	-57.37248611450198	236.2192382812501	1331.077758789063	-25.30001258850099	133.9761657714844	1334.616455078125	53.98202896118167	148.0824279785157	1335.789184570313	102.8818893432618	47.62703704833986	1038.731201171875	61.58485412597659	119.4239730834962	1015.835083007813	30.59077072143556	72.88823699951175	1005.70361328125	33.30751800537111	102.6791687011719	873.0305786132817	215.4992218017579	34.65870666503908	851.0790405273442	177.2019805908204	94.65980529785159	802.740112304688	278.1863403320314	37.49446487426759	774.9026489257817	197.9311828613282	
75	0.74	403.3227844238284	875.7726440429692	155.8653717041016	341.1507568359376	923.792602539063	-23.88610839843751	252.0694885253907	925.4719848632817	-33.53427505493165	162.9165496826172	885.4507446289067	135.5574493408204	460.0537414550784	793.7284545898442	80.83461761474612	407.579772949219	438.984069824219	87.27012634277347	293.6277770996095	438.6264648437502	105.3863754272462	406.6283874511721	375.4139709472657	70.70048522949222	359.1578979492189	364.7919921875001	134.0833587646485	339.9597167968751	60.08351898193362	70.39607238769534	255.2650604248048	76.63190460205081	97.55065155029303	289.4980773925782	20.2732105255127	30.78675842285158	274.648895263672	28.17536926269533	212.5365295410157	337.2100524902345	37.6534996032715	217.2474060058595	379.9952697753907	23.03910446166993	161.7927551269532	111.5247116088868	797.2376098632817	27.60986518859865	104.1980056762696	453.3043518066409	10.6106185913086	217.0115203857423	417.2617797851565	48.49402999877933	104.3634033203126	411.8215332031252	-37.62733078002931	135.1924743652344	360.1428222656251	17.6528720855713	165.7881774902344	205.1336059570314	-268.1101379394532	236.4723663330079	179.3468322753907	-214.5654754638673	235.4678802490236	209.2572021484376	-307.299041748047	219.5363922119142	53.75928115844729	-220.5301971435548	159.6495513916016	56.48830413818362	-225.5504913330079	129.9760131835938	94.69104003906253	-271.7146606445314	332.2291259765626	1387.057250976563	18.76221466064454	315.3952026367189	1157.46044921875	-51.50484466552737	316.1547241210939	1153.726684570313	180.194808959961	328.9478759765626	1317.912109375	144.9951171875001	413.9219665527346	1188.423095703125	-50.45976638793948	414.7454223632815	1317.817504882813	-26.86086845397951	521.4395141601565	1307.865600585938	46.53600692749025	506.4988708496096	1318.73193359375	87.60822296142581	577.7961425781252	1034.145385742188	53.0027770996094	500.6582946777346	1001.557922363282	31.62036132812501	550.8466796875002	996.4355468750005	22.99324226379395	530.8062133789065	825.3572387695317	188.1184844970704	595.5562133789065	809.8320312500005	142.4966430664063	536.1799926757815	752.294372558594	234.8142547607423	594.208190917969	732.2138671875002	152.900375366211	203.2398834228517	1209.884033203125	-55.19158172607425	237.1216278076173	1331.040771484375	-23.1812858581543	134.9205932617188	1334.546142578125	56.15801239013675	149.0599670410157	1335.728759765625	105.0494613647462	48.45273590087893	1038.738403320313	63.79154205322268	120.2334671020508	1015.812561035157	32.74925994873048	73.69171905517581	1005.740173339844	35.46422958374025	103.3038711547852	872.7598266601567	217.4479827880861	35.24216461181642	850.9500122070317	179.1135864257813	95.19135284423831	802.4166870117192	280.0416870117189	37.97386932373048	774.7390136718755	199.7440338134767	
